<svg width="67" height="67" viewBox="0 0 67 67" fill="none" xmlns="http://www.w3.org/2000/svg">
<path d="M34.9452 57.8369C37.7066 51.946 39.8009 46.7222 43.7128 42.028C45.7838 39.5428 45.9448 39.0136 44.7712 38.6684C42.7232 38.0471 39.0643 41.0156 36.418 45.4108C35.9117 46.2392 35.4975 46.8836 35.4515 46.8375C35.4055 46.7915 35.5665 44.4213 35.7736 41.5448C36.4871 32.3171 36.257 30.6604 34.3701 30.7064C31.4706 30.7984 30.7341 32.3173 30.5501 38.8526C30.481 41.8671 30.32 44.8356 30.2049 45.4569L30.0207 46.6073L29.3767 45.6867C26.2932 41.2225 22.9103 38.9446 20.8392 39.9571C18.6762 41.0156 18.9293 42.0511 22.2889 45.871C24.452 48.3562 29.3997 56.2949 30.044 58.3199C30.6883 60.2989 33.9097 59.977 34.9452 57.8369Z" fill="#2E2E2E"/>
<path d="M36.3489 21.732C37.3384 17.1987 37.7757 9.02959 37.0394 8.47732C36.303 7.92504 34.6232 8.27021 33.3805 9.19067C32.0229 10.2262 31.3094 23.3658 32.529 24.5854C33.6336 25.6899 35.8427 24.0331 36.3489 21.732Z" fill="#2E2E2E"/>
</svg>
