<svg width="74" height="77" viewBox="0 0 74 77" fill="none" xmlns="http://www.w3.org/2000/svg">
<path d="M21.0088 32.1599C18.1207 35.281 18.2604 38.2157 21.3815 39.0542C24.2696 39.8461 29.58 35.1412 27.9497 33.1848C26.2261 31.1351 22.4529 30.5761 21.0088 32.1599Z" fill="#2E2E2E"/>
<path d="M20.1704 67.3299C18.2605 67.656 15.6052 73.7122 16.7232 75.0631C18.9592 77.7649 22.0803 77.0657 24.5957 73.2925C27.2509 69.1932 25.2479 66.4449 20.1704 67.3299Z" fill="#2E2E2E"/>
<path d="M10.8072 14.4124C8.75757 15.2043 7.68617 19.6762 9.17682 21.0271C11.4594 23.0768 13.509 22.5639 15.9313 19.3497C18.4002 16.1355 14.9531 12.782 10.8072 14.4124Z" fill="#2E2E2E"/>
<path d="M3.16763 46.6477C1.95648 47.6259 0 50.8862 0 51.9576C0 55.8706 7.45325 54.1941 9.82897 49.7221C10.9935 47.5327 5.31044 44.9241 3.16763 46.6477Z" fill="#2E2E2E"/>
<path d="M37.126 50.0943C34.6571 50.4669 33.1199 55.5915 35.0298 56.9424C36.7533 58.1536 37.9184 57.827 40.2009 55.3581C43.881 51.4918 41.2253 49.4887 37.126 50.0943Z" fill="#2E2E2E"/>
<path d="M47.0952 67.0038C43.1356 72.5472 43.322 76.3204 47.5144 76.3204C48.9119 76.3204 54.5484 69.939 54.5484 68.3552C54.5018 65.5136 48.8653 64.4884 47.0952 67.0038Z" fill="#2E2E2E"/>
<path d="M58.2284 42.4552C55.8993 43.6198 54.1291 50.1875 55.8993 51.1191C58.275 52.3769 61.2563 50.6067 63.8649 46.3677C65.4488 43.759 61.3495 40.918 58.2284 42.4552Z" fill="#2E2E2E"/>
<path d="M34.9371 0.996071C29.58 6.72575 29.3471 11.1511 34.4246 11.1511C36.1482 11.1511 40.8065 6.91208 42.4369 3.8842C43.881 1.08923 37.2196 -1.47282 34.9371 0.996071Z" fill="#2E2E2E"/>
<path d="M53.0577 22.9831C50.682 21.772 48.5392 22.0985 47.4678 23.8221C43.1822 30.7629 48.3529 33.5113 53.5236 26.9897C55.2005 24.9401 55.0608 24.008 53.0577 22.9831Z" fill="#2E2E2E"/>
<path d="M72.9952 17.4398C72.4362 15.7628 68.5232 14.4585 66.7531 15.3436C65.3556 16.0423 62.9799 22.4246 63.7718 23.3563C65.8214 25.8717 74.0666 20.5608 72.9952 17.4398Z" fill="#2E2E2E"/>
</svg>
