<svg width="81" height="71" viewBox="0 0 81 71" fill="none" xmlns="http://www.w3.org/2000/svg">
<path d="M16.4931 48.0221C15.1495 51.7429 13.8056 51.9155 12.2897 48.6081C11.1529 46.1621 11.8078 39.7883 13.3925 37.6523C14.805 35.7231 11.9111 34.724 9.77516 36.4121C6.2956 39.1337 5.39963 47.781 8.29342 51.0538C12.9099 56.3249 22.315 53.2935 22.315 46.5411C22.315 43.6127 17.6645 44.7837 16.4931 48.0221Z" fill="#2E2E2E"/>
<path d="M39.0927 22.1493C36.9568 18.3597 33.4083 19.1176 34.4763 23.1484C35.6821 27.6271 33.7184 31.7612 31.2034 30.0731C29.0675 28.6262 28.344 26.5591 28.3095 21.5981C28.6885 18.4631 27.4483 15.5003 25.9324 17.8429C20.8681 25.7323 24.1754 33.3118 32.7537 33.2774C38.6793 33.2429 42.0211 27.3515 39.0927 22.1493Z" fill="#2E2E2E"/>
<path d="M74.853 28.5572C74.164 29.074 74.1984 29.6941 75.0253 34.0005C75.8865 38.4792 74.0262 40.3399 70.1332 38.9618C66.6192 37.6871 65.6545 39.7539 69.0652 41.2697C72.3725 42.7167 78.6771 41.4764 80.1585 39.0648C82.8801 34.5862 78.4359 25.8701 74.853 28.5572Z" fill="#2E2E2E"/>
<path d="M19.869 10.3326C21.2126 5.44053 16.3553 4.09693 14.5983 8.88564C13.4959 11.8484 11.291 13.6402 8.74162 13.6402C5.22743 13.6402 4.98617 7.40459 8.43122 3.64941C12.2897 -0.622526 5.8131 -0.312536 4.60731 0.47984C0.783235 2.89149 -1.04268 8.09361 0.61098 11.7454C3.67713 18.6012 17.8364 17.5673 19.869 10.3326Z" fill="#2E2E2E"/>
<path d="M40.8153 61.6648C40.4019 62.1127 39.7818 63.284 39.4373 64.2486C37.4391 69.8986 32.7193 69.0029 31.6857 62.8017C31.3412 60.7691 29.2053 60.4245 28.5507 62.2505C25.5534 70.7943 40.1263 74.5151 44.3982 66.2812C46.5342 62.0782 43.7436 58.4953 40.8153 61.6648Z" fill="#2E2E2E"/>
<path d="M58.3164 3.95912C58.2131 4.09692 58.3509 5.0619 58.6609 6.09543C60.9692 14.1914 58.4198 17.3265 52.3564 13.9158C49.7725 12.4689 48.2567 13.1924 49.6692 15.225C53.0109 19.9792 63.7252 18.3945 65.0344 12.9512C66.2402 7.92134 60.5902 0.307436 58.3164 3.95912Z" fill="#2E2E2E"/>
<path d="M53.1488 39.2371C52.5287 39.7194 52.4598 40.1673 52.4598 43.1645C52.4598 49.4002 50.3927 50.4682 46.3275 46.334C43.8125 43.7847 42.2967 43.6816 42.2967 46.0243C42.2967 51.881 54.5613 53.2935 57.3863 47.7469C59.6601 43.1649 56.4217 36.6877 53.1488 39.2371Z" fill="#2E2E2E"/>
</svg>
