<?xml version="1.0" standalone="no"?>
<!DOCTYPE svg PUBLIC "-//W3C//DTD SVG 20010904//EN"
 "http://www.w3.org/TR/2001/REC-SVG-20010904/DTD/svg10.dtd">
<svg version="1.0" xmlns="http://www.w3.org/2000/svg"
 width="500.000000pt" height="500.000000pt" viewBox="0 0 500.000000 500.000000"
 preserveAspectRatio="xMidYMid meet">

<g transform="translate(0.000000,500.000000) scale(0.100000,-0.100000)"
fill="#000000" stroke="none">
<path d="M2378 3613 c6 -2 12 -14 11 -26 0 -21 -1 -21 -9 -2 -8 18 -9 17 -9
-7 -1 -16 4 -28 12 -28 8 0 7 -4 -3 -11 -11 -8 -12 -12 -2 -16 16 -6 16 -24
-1 -17 -11 4 -13 -19 -12 -118 1 -68 2 -219 3 -335 l2 -213 30 0 c27 0 30 3
30 33 1 29 2 31 15 14 7 -10 22 -17 32 -15 14 2 19 14 21 56 2 28 7 52 12 52
14 0 11 442 -3 459 -10 12 -9 13 3 6 13 -8 13 -6 2 8 -8 9 -11 21 -7 27 3 5 2
10 -2 10 -5 0 -9 8 -10 18 -2 29 -9 51 -18 59 -4 4 -5 2 -1 -4 4 -8 2 -13 -6
-13 -7 0 -19 14 -26 30 -8 17 -18 28 -23 24 -5 -3 -9 0 -9 5 0 6 -10 11 -22
10 -13 0 -17 -3 -10 -6z"/>
<path d="M2639 3493 c-12 -61 -21 -408 -14 -530 7 -121 7 -123 31 -123 20 0
24 5 25 33 1 17 3 24 6 15 3 -11 14 -18 27 -18 20 0 24 6 30 53 10 87 7 437
-4 437 -5 0 -10 16 -10 35 0 24 -5 35 -15 35 -8 0 -15 7 -15 15 0 25 -57 70
-61 48z"/>
<path d="M2212 3464 c-12 -8 -22 -22 -22 -30 0 -8 -7 -17 -15 -20 -10 -4 -15
-20 -15 -46 0 -21 -4 -37 -9 -34 -4 3 -11 -29 -15 -71 -10 -118 -7 -331 4
-338 6 -3 10 -19 10 -36 0 -24 4 -29 24 -29 13 0 27 6 29 13 3 6 6 -3 6 -20 1
-26 5 -33 21 -33 11 0 23 6 25 13 2 6 6 130 8 275 4 221 2 264 -9 269 -11 4
-12 9 -3 19 6 8 9 23 6 34 -3 11 -1 20 5 20 5 0 3 7 -6 15 -18 18 -17 18 -44
-1z"/>
<path d="M4275 3410 c-61 -7 -252 -35 -262 -39 -11 -5 -19 -68 -13 -112 9 -67
32 -113 65 -135 22 -14 30 -14 107 6 89 24 312 40 328 24 13 -13 -28 -188 -95
-399 l-57 -179 22 -18 c12 -10 55 -37 96 -60 41 -23 74 -46 74 -50 0 -4 -48
-32 -107 -62 -60 -29 -118 -62 -129 -72 -15 -13 -32 -57 -53 -134 -17 -63 -46
-160 -65 -215 l-34 -100 -83 -8 c-46 -4 -151 -16 -234 -27 -82 -11 -164 -20
-180 -20 -40 0 -75 -25 -75 -55 0 -38 38 -150 62 -180 25 -31 28 -31 218 11
84 19 133 25 182 21 37 -2 69 -1 70 4 2 5 43 11 91 13 100 6 147 26 170 73 7
15 44 126 82 246 l69 219 42 24 c23 14 48 31 54 39 7 8 22 15 35 15 12 0 40
13 61 28 30 22 47 28 74 25 29 -4 40 1 63 25 80 84 25 209 -143 323 -28 19
-50 40 -50 47 0 7 13 66 29 130 16 64 46 192 66 284 39 172 40 216 6 225 -10
3 -24 16 -30 29 -19 43 -71 56 -231 59 -80 2 -181 -1 -225 -5z"/>
<path d="M875 3399 c-63 -5 -287 -35 -291 -38 -2 -2 -4 -34 -7 -131 -3 -99
-23 -200 -74 -379 -14 -49 -19 -55 -62 -73 -25 -11 -53 -26 -61 -33 -8 -7 -28
-15 -44 -19 -16 -4 -43 -18 -61 -32 -24 -18 -40 -23 -58 -19 -74 19 -134 -98
-92 -179 8 -15 15 -34 15 -41 0 -6 11 -17 25 -23 14 -7 28 -19 31 -27 4 -8 37
-37 75 -65 39 -29 69 -58 69 -68 0 -24 -129 -452 -146 -484 -10 -19 -13 -40
-8 -65 11 -60 43 -139 64 -158 22 -20 27 -19 210 22 84 18 133 24 182 20 37
-2 71 0 75 4 5 5 45 11 89 13 102 6 147 26 169 77 20 43 14 68 -15 76 -11 3
-20 11 -20 17 0 7 -16 20 -35 29 -19 9 -35 21 -35 27 0 12 -112 12 -265 0 -60
-4 -111 -7 -113 -5 -3 3 22 87 108 360 49 156 53 181 35 199 -8 7 -50 35 -95
60 -44 26 -80 50 -80 54 0 4 56 35 125 69 l124 62 14 48 c8 26 34 134 58 240
30 135 48 194 59 198 8 4 105 11 215 16 227 11 311 22 372 49 36 16 43 23 43
47 0 33 -25 73 -45 73 -7 0 -16 9 -20 19 -10 33 -53 52 -138 61 -91 11 -270
10 -392 -1z"/>
<path d="M1880 2780 c-124 -3 -231 -9 -237 -13 -7 -5 -23 -10 -34 -12 -12 -3
-24 -6 -26 -9 -10 -9 9 -26 28 -26 21 0 26 -16 7 -23 -10 -4 -10 -6 0 -6 6 -1
12 -6 12 -12 0 -5 -4 -7 -10 -4 -14 8 -21 -32 -16 -85 3 -25 8 -76 12 -115 3
-38 10 -71 15 -73 5 -2 9 -10 9 -18 0 -7 34 -82 74 -166 80 -164 167 -303 239
-383 l45 -50 -104 -5 c-108 -5 -130 -14 -136 -55 -2 -11 -7 -25 -10 -30 -4 -6
-3 -17 2 -25 8 -13 104 -15 675 -15 648 0 667 1 681 19 8 11 14 30 14 43 0 13
5 23 10 23 15 0 12 30 -2 31 -7 1 -17 2 -23 4 -5 1 -43 3 -83 3 l-74 2 22 28
c82 106 117 158 158 239 l47 92 55 6 c30 3 82 8 115 10 119 10 221 88 286 220
52 107 43 225 -23 305 -25 30 -74 59 -138 80 -64 22 -73 22 -715 24 -357 0
-751 -1 -875 -4z m1568 -167 c69 -51 59 -162 -22 -242 -65 -63 -222 -115 -178
-58 30 39 54 167 53 286 l-1 43 60 -4 c40 -3 70 -11 88 -25z m-8 -409 c0 -6
-65 -34 -77 -33 -4 0 10 9 32 19 48 22 45 21 45 14z m-345 -144 c-9 -16 -18
-30 -21 -30 -2 0 2 14 11 30 9 17 18 30 21 30 2 0 -2 -13 -11 -30z m-25 -47
c0 -5 -10 -19 -21 -33 l-21 -25 18 33 c18 32 24 38 24 25z m-76 -115 c-25 -43
-88 -118 -99 -118 -3 0 18 29 47 65 51 62 67 79 52 53z"/>
</g>
</svg>
