<svg width="229" height="20" viewBox="0 0 229 20" fill="none" xmlns="http://www.w3.org/2000/svg">
<path fill-rule="evenodd" clip-rule="evenodd" d="M12.7857 0.095238C-0.0432275 0.470384 -1.49562 0.995516 2.13521 3.7716C6.12909 6.8478 14.4801 7.59832 79.351 8.87382C4.43479 9.77409 -2.4639 10.8245 0.56179 14.3509C4.43468 18.7776 29.2454 18.3274 150.031 18.4775C186.218 18.5525 206.309 19.828 216.596 19.5279C230.877 19.0777 227.367 15.6264 221.437 14.0508L224.705 13.6756C233.298 12.7002 228.094 6.54791 217.08 4.74721C207.398 3.17159 151.725 1.52079 98.1102 1.22068C27.188 0.92056 27.4301 -0.354938 12.7857 0.095238Z" fill="#FFD100"/>
</svg>
