<svg width="16" height="32" viewBox="0 0 16 32" fill="none" xmlns="http://www.w3.org/2000/svg">
<path d="M11.2375 3.55488C9.88736 1.96666 8.72476 0.353626 8.48725 0.0186119C8.46224 -0.00620397 8.42472 -0.00620397 8.39973 0.0186119C8.1622 0.353626 6.99961 1.96666 5.64949 3.55488C-5.93897 18.2086 7.47466 28.0979 7.47466 28.0979L7.58716 28.1722C7.68716 29.6985 7.93719 31.8947 7.93719 31.8947H8.43723H8.93727C8.93727 31.8947 9.1873 29.7108 9.28731 28.1722L9.39981 28.0854C9.4123 28.0854 22.826 18.2086 11.2375 3.55488ZM8.43723 27.8745C8.43723 27.8745 7.83719 27.3657 7.67467 27.1051V27.0803L8.39973 11.1237C8.39973 11.0741 8.47474 11.0741 8.47474 11.1237L9.19979 27.0803V27.1051C9.03728 27.3657 8.43723 27.8745 8.43723 27.8745Z" fill="#00ED64"/>
</svg>
