<svg width="33" height="32" viewBox="0 0 33 32" fill="none" xmlns="http://www.w3.org/2000/svg">
<g clip-path="url(#clip0_31_100)">
<path d="M15.9056 0.00861131C15.8368 0.0148665 15.6178 0.0367597 15.4207 0.0523976C10.8757 0.462113 6.6184 2.91415 3.92202 6.6829C2.42055 8.77839 1.46024 11.1554 1.09738 13.6731C0.969131 14.5519 0.953491 14.8115 0.953491 16.0031C0.953491 17.1947 0.969131 17.4543 1.09738 18.3332C1.96698 24.3413 6.24303 29.3892 12.0424 31.2595C13.081 31.5942 14.1758 31.8225 15.4207 31.9601C15.9056 32.0133 18.0014 32.0133 18.4862 31.9601C20.6352 31.7224 22.4557 31.1907 24.2512 30.2743C24.5265 30.1336 24.5797 30.0961 24.5422 30.0648C24.5171 30.046 23.3441 28.4729 21.9365 26.5713L19.3777 23.1153L16.1715 18.3707C14.4073 15.7623 12.9558 13.6293 12.9433 13.6293C12.9308 13.6262 12.9183 15.7342 12.912 18.3082C12.9027 22.815 12.8995 22.9964 12.8432 23.1028C12.7619 23.256 12.6993 23.3186 12.568 23.3874C12.4679 23.4374 12.3803 23.4468 11.9079 23.4468H11.3668L11.2229 23.3561C11.1291 23.2967 11.0602 23.2185 11.0133 23.1278L10.9476 22.9871L10.9539 16.7162L10.9633 10.4423L11.0602 10.3203C11.1103 10.2546 11.2166 10.1702 11.2917 10.1295C11.42 10.067 11.47 10.0607 12.0112 10.0607C12.6493 10.0607 12.7556 10.0857 12.9214 10.2671C12.9683 10.3172 14.7044 12.9318 16.7814 16.0813C18.8585 19.2308 21.6987 23.5313 23.0939 25.6424L25.6276 29.4799L25.7558 29.3955C26.8913 28.6574 28.0925 27.6065 29.0434 26.5119C31.0673 24.188 32.3717 21.3544 32.8096 18.3332C32.9379 17.4543 32.9535 17.1947 32.9535 16.0031C32.9535 14.8115 32.9379 14.5519 32.8096 13.6731C31.94 7.66496 27.6639 2.61703 21.8645 0.746724C20.8417 0.415199 19.7531 0.186884 18.5332 0.0492701C18.2329 0.0179941 16.1652 -0.0164094 15.9056 0.00861131ZM22.4557 9.68539C22.6059 9.76045 22.7279 9.90432 22.7717 10.0544C22.7967 10.1358 22.803 11.8747 22.7967 15.7936L22.7873 21.417L21.7957 19.897L20.801 18.377V14.2892C20.801 11.6464 20.8135 10.1608 20.8323 10.0889C20.8823 9.9137 20.9918 9.77609 21.142 9.69477C21.2702 9.62909 21.3171 9.62284 21.8082 9.62284C22.2712 9.62284 22.3525 9.62909 22.4557 9.68539Z" fill="white"/>
</g>
<defs>
<clipPath id="clip0_31_100">
<rect width="32" height="32" fill="white" transform="translate(0.953491)"/>
</clipPath>
</defs>
</svg>
