<svg width="36" height="32" viewBox="0 0 36 32" fill="none" xmlns="http://www.w3.org/2000/svg">
<path fill-rule="evenodd" clip-rule="evenodd" d="M35.9331 16.0044C35.9331 13.6241 32.9533 11.3695 28.3827 9.96875C29.4384 5.31043 28.9676 1.60541 26.903 0.418167C26.4264 0.140364 25.8708 0.00877273 25.2625 0.00877273V1.64342C25.5988 1.64342 25.8708 1.71068 26.0989 1.8335C27.096 2.40373 27.5259 4.57937 27.1896 7.37787C27.1077 8.06506 26.9761 8.79028 26.8153 9.53011C25.3795 9.1792 23.8121 8.90725 22.1658 8.73179C21.1774 7.37787 20.151 6.14676 19.1187 5.07064C21.5049 2.84821 23.7449 1.63465 25.2684 1.63465V0C23.2536 0 20.6188 1.4358 17.9519 3.92726C15.285 1.45042 12.6503 0.0292424 10.6355 0.0292424V1.66389C12.1502 1.66389 14.399 2.87161 16.7881 5.07649C15.7617 6.15261 14.7382 7.37494 13.7644 8.73179C12.1093 8.90725 10.5419 9.1792 9.1061 9.53596C8.93649 8.8049 8.81367 8.09431 8.72594 7.41296C8.38088 4.61446 8.80782 2.43882 9.79622 1.85982C10.0155 1.72823 10.3021 1.66974 10.6384 1.66974V0.0380152C10.0243 0.0380152 9.46578 0.169606 8.98328 0.447409C6.92461 1.63465 6.46258 5.33382 7.527 9.97752C2.96518 11.3812 0 13.6299 0 16.0044C0 18.3847 2.9798 20.6393 7.5504 22.04C6.49475 26.6983 6.96555 30.4034 9.03006 31.5906C9.50672 31.8684 10.0623 32 10.6793 32C12.6941 32 15.3289 30.5642 17.9958 28.0727C20.6627 30.5496 23.2974 31.9708 25.3123 31.9708C25.9263 31.9708 26.4849 31.8392 26.9674 31.5614C29.026 30.3741 29.4881 26.675 28.4236 22.0313C32.9679 20.6335 35.9331 18.3759 35.9331 16.0044ZM21.306 16.0044C21.306 14.1563 19.8088 12.6561 17.9578 12.6561C16.1097 12.6561 14.6095 14.1533 14.6095 16.0044C14.6095 17.8554 16.1067 19.3526 17.9578 19.3526C19.8088 19.3497 21.306 17.8525 21.306 16.0044ZM26.3971 11.118C26.1252 12.0625 25.7889 13.0363 25.4088 14.0101C25.1076 13.4252 24.7947 12.8374 24.4496 12.2526C24.1133 11.6677 23.7536 11.0946 23.394 10.539C24.435 10.694 25.438 10.884 26.3971 11.118ZM23.043 18.9199C22.4728 19.9083 21.885 20.8469 21.2768 21.7184C20.1861 21.8149 19.0807 21.8646 17.9666 21.8646C16.8612 21.8646 15.7558 21.8119 14.6709 21.7242C14.0627 20.8528 13.4691 19.9229 12.8988 18.9403C12.3432 17.9812 11.8373 17.0074 11.3753 16.0249C11.8286 15.0423 12.3432 14.0627 12.8901 13.1035C13.4603 12.1151 14.0481 11.1765 14.6563 10.305C15.7471 10.2085 16.8524 10.1588 17.9666 10.1588C19.0719 10.1588 20.1773 10.2115 21.2622 10.2992C21.8704 11.1706 22.464 12.1005 23.0343 13.0831C23.5899 14.0422 24.0958 15.016 24.5578 15.9985C24.0958 16.9782 23.5928 17.9578 23.043 18.9199ZM25.4088 17.9666C25.8035 18.9491 26.1398 19.9287 26.4205 20.882C25.4614 21.116 24.4496 21.3148 23.4027 21.4669C23.7624 20.9025 24.1192 20.3235 24.4584 19.7299C24.7917 19.145 25.1076 18.5514 25.4088 17.9666ZM17.9812 25.7801C17.2998 25.0783 16.6185 24.2946 15.9459 23.4378C16.6039 23.4671 17.2794 23.4905 17.9607 23.4905C18.6479 23.4905 19.3293 23.4758 19.996 23.4378C19.3351 24.2946 18.6538 25.0783 17.9812 25.7801ZM12.5333 21.4669C11.4923 21.3119 10.4893 21.1218 9.53011 20.8879C9.80206 19.9433 10.1384 18.9696 10.5185 17.9958C10.8197 18.5806 11.1326 19.1684 11.4777 19.7533C11.8227 20.341 12.1736 20.9113 12.5333 21.4669ZM17.9432 6.22572C18.6245 6.92753 19.3059 7.71123 19.9784 8.56803C19.3205 8.53879 18.645 8.5154 17.9636 8.5154C17.2764 8.5154 16.5951 8.53002 15.9284 8.56803C16.5892 7.71123 17.2706 6.92753 17.9432 6.22572ZM12.5245 10.539C12.1649 11.1034 11.8081 11.6824 11.4689 12.276C11.1326 12.8608 10.8168 13.4486 10.5156 14.0334C10.1208 13.0509 9.78452 12.0713 9.50379 11.118C10.4659 10.8899 11.4777 10.694 12.5245 10.539ZM5.89528 19.7094C3.30147 18.604 1.62588 17.1536 1.62588 16.0044C1.62588 14.8552 3.3044 13.396 5.89528 12.2994C6.52399 12.0274 7.21411 11.7876 7.9247 11.5595C8.34287 12.9953 8.89263 14.4896 9.57397 16.019C8.9014 17.5425 8.35749 19.0281 7.94809 20.458C7.22288 20.2299 6.53276 19.9814 5.89528 19.7094ZM9.83716 30.1753C8.83999 29.605 8.41012 27.4294 8.74641 24.6309C8.82829 23.9437 8.95988 23.2185 9.12072 22.4787C10.5565 22.8296 12.1239 23.1015 13.7703 23.277C14.7587 24.6309 15.7851 25.862 16.8173 26.9381C14.4282 29.1576 12.1882 30.3741 10.6647 30.3741C10.3343 30.3653 10.0565 30.301 9.83716 30.1753ZM27.2101 24.5958C27.5552 27.3943 27.1282 29.57 26.1398 30.149C25.9205 30.2805 25.6339 30.339 25.2976 30.339C23.7829 30.339 21.5341 29.1313 19.145 26.9264C20.1714 25.8503 21.1949 24.628 22.1687 23.2711C23.8238 23.0957 25.3912 22.8237 26.827 22.464C26.9966 23.2039 27.1282 23.9145 27.2101 24.5958ZM30.0291 19.7094C29.4003 19.9814 28.7102 20.2211 27.9996 20.4492C27.5815 19.0134 27.0317 17.5191 26.3504 15.9898C27.0229 14.4662 27.5668 12.9807 27.9762 11.5508C28.7015 11.7789 29.3887 12.0274 30.0349 12.2964C32.6287 13.4018 34.3043 14.8522 34.3043 16.0015C34.2985 17.1536 32.6229 18.6099 30.0291 19.7094Z" fill="#00D8FF"/>
</svg>
