<svg width="33" height="32" viewBox="0 0 33 32" fill="none" xmlns="http://www.w3.org/2000/svg">
<g clip-path="url(#clip0_31_95)">
<path d="M0.933105 16V0H32.9331V32H0.933105" fill="#007ACC"/>
<path d="M7.9491 16.0559V17.3599H12.1091V29.1999H15.0611V17.3599H19.2211V16.0799C19.2211 15.3599 19.2211 14.7759 19.1891 14.7599C19.1891 14.7359 16.6531 14.7279 13.5731 14.7279L7.9731 14.7519V16.0639L7.9491 16.0559ZM26.6451 14.7199C27.4611 14.9119 28.0851 15.2799 28.6451 15.8639C28.9411 16.1839 29.3811 16.7439 29.4131 16.8879C29.4131 16.9359 28.0291 17.8719 27.1891 18.3919C27.1571 18.4159 27.0291 18.2799 26.9011 18.0719C26.4851 17.4799 26.0611 17.2239 25.3971 17.1759C24.4371 17.1119 23.7971 17.6159 23.7971 18.4559C23.7971 18.7119 23.8451 18.8559 23.9411 19.0639C24.1571 19.5039 24.5571 19.7679 25.7971 20.3119C28.0851 21.2959 29.0771 21.9439 29.6771 22.8719C30.3571 23.9119 30.5091 25.5439 30.0531 26.7679C29.5411 28.1039 28.2931 29.0079 26.5091 29.3039C25.9491 29.3999 24.6691 29.3839 24.0691 29.2799C22.7891 29.0399 21.5651 28.3999 20.8131 27.5759C20.5171 27.2559 19.9491 26.3999 19.9811 26.3439L20.2851 26.1519L21.4851 25.4559L22.3891 24.9279L22.5971 25.2079C22.8611 25.6239 23.4531 26.1839 23.7971 26.3759C24.8371 26.9119 26.2291 26.8399 26.9171 26.2159C27.2131 25.9439 27.3411 25.6559 27.3411 25.2559C27.3411 24.8879 27.2851 24.7199 27.1011 24.4399C26.8451 24.0879 26.3331 23.7999 24.8931 23.1599C23.2371 22.4559 22.5331 22.0079 21.8771 21.3199C21.5011 20.9039 21.1571 20.2559 20.9971 19.7199C20.8771 19.2559 20.8371 18.1199 20.9491 17.6639C21.2931 16.0639 22.5011 14.9439 24.2291 14.6239C24.7891 14.5119 26.1091 14.5599 26.6611 14.7039L26.6451 14.7199Z" fill="white"/>
</g>
<defs>
<clipPath id="clip0_31_95">
<rect width="32" height="32" fill="white" transform="translate(0.933105)"/>
</clipPath>
</defs>
</svg>
