<svg width="18" height="24" viewBox="0 0 18 24" fill="none" xmlns="http://www.w3.org/2000/svg">
<path fill-rule="evenodd" clip-rule="evenodd" d="M10.2871 0.594544C7.85757 1.88092 2.38129 8.23072 0.595279 11.7888C-0.481582 13.9373 -0.350219 14.0605 3.12988 14.2658L5.6119 14.4163C1.10747 22.6272 1.56709 21.7514 1.5277 21.8335C0.542762 23.5988 1.88227 24.7757 3.30058 23.3936C3.31371 23.3799 15.4875 13.5268 17.6675 10.2561C17.917 9.88658 17.8514 9.46235 17.2998 9.03811C16.3936 8.34019 15.1723 8.12123 10.7204 7.73805C10.0244 7.68331 9.70924 7.60121 9.76177 7.49173C10.0901 6.65695 11.3508 3.15361 11.9549 1.78512C12.664 0.18399 12.5984 -0.637096 10.2871 0.594544ZM9.38088 3.65996C9.26269 3.94735 7.80499 7.58752 7.73932 7.73805C7.39788 8.44966 7.62114 8.81917 8.47475 8.91496C11.3114 9.22972 12.4407 9.3392 13.5833 9.39393C15.4743 9.48973 15.4875 9.40761 13.4914 11.5014C11.3639 13.7457 5.92708 18.946 5.80889 18.8228C5.70383 18.7133 7.45046 15.2374 7.92323 14.5942C8.77684 13.431 8.51416 13.2667 5.79574 13.2667C4.57443 13.2667 3.81274 13.2394 3.23492 13.1983C2.69649 13.1573 2.36816 12.5551 2.63081 12.0488C3.61574 10.174 5.37552 7.83385 8.30406 4.48106C9.64357 2.97572 9.66979 2.94835 9.38088 3.65996Z" fill="#FFD100"/>
</svg>
