<svg width="161" height="132" viewBox="0 0 161 132" fill="none" xmlns="http://www.w3.org/2000/svg">
<path d="M11.2352 62.6706C7.59883 65.0172 7.57648 70.7131 11.2925 76.7215C17.1214 86.3036 22.5636 86.5713 26.52 77.4181C29.1314 71.4134 16.5493 59.2072 11.2352 62.6706ZM20.3439 78.0183C18.9982 78.5976 17.3926 78.0421 16.6808 76.7235C16.6108 76.5168 12.2183 68.8239 15.6865 66.871C17.1691 66.015 17.6952 66.156 18.929 67.8651C22.2725 72.4578 23.3185 74.8679 20.3439 78.0183Z" fill="#2E2E2E"/>
<path d="M99.0504 35.1968C103.036 40.9014 117.11 37.7175 118.99 30.7021C120.008 26.9022 113.039 22.2778 108.331 23.7108C100.098 26.1415 96.1547 31.0374 99.0504 35.1968ZM109.48 27.8408C113.315 25.9234 114.464 26.5447 113.932 28.5323C113.43 30.4031 108.799 33.4229 105.41 34.144C101.078 35.1135 103.484 30.8083 109.48 27.8408Z" fill="#2E2E2E"/>
<path d="M18.7892 44.7694C23.4992 47.5353 35.6789 40.8982 33.6488 36.7827C31.2762 32.0741 25.9886 29.5928 22.8126 31.6241C13.9092 37.2586 12.7272 41.2027 18.7892 44.7694ZM21.101 38.2458C25.531 34.1069 27.6597 34.1127 29.0105 35.8531C29.7579 36.8053 28.2897 38.5429 24.7787 40.4218C22.9568 41.3747 20.1402 43.001 19.2059 41.8108C18.1976 40.6634 19.5204 39.702 21.101 38.2458Z" fill="#2E2E2E"/>
<path d="M108.87 91.1503C100.438 94.0914 96.3383 105.65 103.12 107.467C107.797 108.72 119.286 102.087 120.539 97.4099C121.683 93.1422 114.409 89.1881 108.87 91.1503ZM103.552 104.45C102.983 104.235 106.131 99.5018 108.72 96.6238C111.562 93.5005 115.66 92.4677 115.899 94.8501C116.178 96.6165 107.348 105.718 103.552 104.45Z" fill="#2E2E2E"/>
<path d="M89.6445 57.9336C83.5662 61.4429 88.9211 79.1068 96.6964 81.1902C101.899 82.5844 108.352 72.533 106.075 66.5341C103.824 60.6679 93.8853 55.4357 89.6445 57.9336ZM96.6833 75.8608C95.0453 76.3617 91.7514 66.2057 92.5659 63.1657C93.4432 59.8919 97.7079 60.3448 99.7308 64.0197C101.968 68.0653 100.24 74.7461 96.6833 75.8608Z" fill="#2E2E2E"/>
<path d="M144.122 61.3092C143.047 60.6451 141.412 59.2671 140.504 58.2095C138.258 55.6025 134.941 54.6511 133.212 56.1929C127.487 61.4259 128.332 68.7953 135.539 76.7416C141.593 83.3765 145.944 83.0392 149.59 75.7453C152.221 70.3723 150.11 64.9187 144.122 61.3092ZM141.651 73.8054C141.05 74.6468 139.876 74.5836 139.289 73.7369L137.93 71.5552C134.129 65.3986 134.719 58.2889 138.869 59.4011C140.331 59.7927 140.518 60.0301 139.761 60.5166C139.062 61.0187 139.342 61.8461 141.377 64.7725C144.203 68.7252 144.194 70.1632 141.651 73.8054Z" fill="#2E2E2E"/>
<path d="M67.5705 88.6055C65.4671 87.102 63.7994 86.7805 62.0246 87.5581C53.9774 91.1664 49.8553 108.421 56.4374 110.748C66.6982 114.312 76.4051 94.9202 67.5705 88.6055ZM58.7367 104.973C58.0947 103.861 59.777 98.9862 62.0657 95.5894C65.3775 90.7122 67.0463 90.0942 67.1159 93.8097C67.147 97.2015 59.9078 106.916 58.7367 104.973Z" fill="#2E2E2E"/>
<path d="M66.7234 28.1639C69.1217 24.3578 59.8603 16.3623 55.869 18.8643C51.4172 21.6816 45.775 28.942 45.7674 32.0102C45.7282 38.7041 61.8682 35.7605 66.7234 28.1639ZM50.2888 32.9084C48.8211 31.1366 54.6082 26.6094 57.5002 24.0008C60.3923 21.3922 62.4071 22.0574 61.5455 25.2727C61.2792 26.2665 51.7721 34.6217 50.2888 32.9084Z" fill="#2E2E2E"/>
<path d="M53.1809 52.9821C46.8951 53.9921 39.1521 63.9478 41.5059 68.0247C44.8868 73.8806 55.0719 72.3489 61.9346 64.977C65.6431 60.958 59.0846 51.995 53.1809 52.9821ZM52.1555 65.9289C45.9916 69.2899 44.7602 65.7011 48.0198 62.1884C52.5051 57.375 58.5654 55.8033 58.1005 59.8769C57.9271 61.4595 55.8304 63.906 52.1555 65.9289Z" fill="#2E2E2E"/>
</svg>
