<svg width="659" height="503" viewBox="0 0 659 503" fill="none" xmlns="http://www.w3.org/2000/svg">
<path fill-rule="evenodd" clip-rule="evenodd" d="M372.115 2.97701C247.292 15.7638 57.3176 91.6719 83.9059 118.26C92.2275 126.582 96.6923 125.772 118.004 111.97C247.292 28.145 491.458 -10.0131 558.639 43.1636C574.268 55.5442 574.065 56.1551 553.565 54.1255C486.384 47.8326 418.797 61.0263 304.325 102.634C60.9707 190.924 -69.9414 338.477 38.4417 403.425C95.2717 437.523 227.807 423.722 345.933 375.01C370.085 365.065 365.214 373.59 334.364 388.203C261.499 422.91 232.476 428.595 197.363 439.149L180.517 435.496C156.161 430.625 110.494 436.915 64.4211 451.528C44.3276 457.82 65.0302 487.453 153.319 472.433C162.859 470.81 158.596 474.463 135.458 487.047C117.192 496.992 116.38 498.007 123.687 501.863C134.241 507.546 184.576 486.44 203.655 468.173C211.367 460.663 215.629 458.632 228.416 455.181C334.567 427.375 497.953 337.259 586.04 256.276C668.849 180.164 681.839 103.241 617.702 70.5636C608.569 65.8954 599.029 58.5887 589.287 48.644C550.927 10.0808 469.132 -6.96825 372.115 2.97701ZM577.718 74.8279C607.96 86.5998 569.397 180.978 510.334 240.244C380.031 370.547 63.8122 457.617 35.3972 371.357C3.53179 274.746 275.707 103.647 506.275 72.9992C516.22 71.5784 573.456 73.0012 577.718 74.8279ZM630.895 104.459C640.84 139.572 619.123 184.429 573.659 231.111C561.075 244.1 552.145 238.62 559.248 230.096C631.504 141.197 609.584 84.5702 609.787 82.9465C616.687 84.1643 628.053 93.7016 630.895 104.459Z" fill="#FFD66B"/>
</svg>
